Albatross.2011.DVDRip.XviD-BHRG





Beth, a bookish teenager, befriends Emilia, an aspiring novelist who has just arrived in town. Emilia soon begins an affair with BethΓÇÖs father that threatens to have devastating consequences.

File size: 700 MiB
Duration: 1h 26mn
Overall bit rate: 1 135 Kbps

Video
ID: 0
Format: MPEG-4 Visual
Format profile: Advanced Simple@L5
Format settings, BVOP: 2
Format settings, QPel: No
Format settings, GMC: No warppoints
Format settings, Matrix: Default (H.263)
Codec ID: XVID
Codec ID/Hint: XviD
Duration: 1h 26mn
Bit rate: 1 001 Kbps
Width: 640 pixels
Height: 256 pixels
Display aspect ratio: 2.500
Frame rate: 25.000 fps
Color space: YUV
Chroma subsampling: 4:2:0
Bit depth: 8 bits
Scan type: Progressive
Compression mode: Lossy
Bits/(Pixel*Frame): 0.244
Stream size: 617 MiB (88%)
Writing library: XviD 1.2.1 (UTC 2008-12-04)

Audio
ID: 1
Format: MPEG Audio
Format version: Version 1
Format profile: Layer 3
Mode: Joint stereo
Mode extension: MS Stereo
Codec ID: 55
Codec ID/Hint: MP3
Duration: 1h 26mn
Bit rate mode: Constant
Bit rate: 128 Kbps
Channel(s): 2 channels
Sampling rate: 48.0 KHz
Compression mode: Lossy
Stream size: 78.9 MiB (11%)
Alignment: Aligned on interleaves
Interleave, duration: 160 ms (4.00 video frames)
Interleave, preload duration: 216 ms
Title: VTS_01_1 T80 3_2ch 448Kbps DELAY 0ms
Writing library: LAME3.99r
Encoding settings: -m j -V 4 -q 2 -lowpass 17 -b 128
imdbhttp://www.imdb.com/title/tt1541149/



